EMG
version=1
nRows=20
nColumns=17
inDegrees=no
endheader
time	EMG01_right_gast_med	EMG02_right_glut_max	EMG03_left_gast_med	EMG04_left_glut_max	EMG05_right_glut_med	EMG06_right_bic_fem	EMG07_right_rect_fem	EMG08_right_vast_lat	EMG09_right_vast_med	EMG10_right_tens_fasc_lat	EMG11_left_glut_med	EMG12_left_bic_fem	EMG13_left_rect_fem	EMG14_left_vast_lat	EMG15_left_vast_med	EMG16_left_tens_fasc_lat
      1.38000000	     -2.73537254	     -8.62685966	     14.21084785	     46.94715118	     42.65060043	    -16.21454048	     -8.10844231	     -2.23169470	      0.21863723	      7.33363628	    -31.23477364	     -6.46212006	     -7.75313807	     -1.74675417	    -13.76117611	     29.49243164
      1.39000000	    -14.31961441	     -3.98927927	    411.18450928	     58.22156143	     63.45074844	    -35.07983780	     -4.82076359	      4.77143002	      9.35732651	    -25.40690041	     -9.32414246	    -13.91270065	    -28.94871712	      5.60619736	    -18.57135582	     13.23090267
      1.40000000	    -12.42561913	      5.27582169	   -187.08450317	     66.44364929	     44.72180176	    -99.14881897	     -3.33884883	    -41.56214523	    -18.60746002	    -50.84217834	     -0.39467764	    -12.40233421	      0.43344760	     -0.82859635	     -1.88201189	     17.58548355
      1.41000000	     -2.09442472	     -1.61694646	   -189.28044128	     62.70223236	    123.82892609	     47.51170731	     -0.05982089	    -14.31281281	    -40.74226761	    -42.06478882	      6.47189426	    -23.37804413	    -10.70927811	      1.90221548	     27.05466461	     12.05889893
      1.42000000	     -1.60351062	    -35.54523468	    333.97680664	     21.66169548	    142.08271790	    -52.47006989	      1.24004173	    -10.52237701	    -65.67890930	    -50.98970795	    -21.00713730	     -8.55852509	     -7.80804348	     -2.81035137	     20.67521667	      0.14945269
      1.43000000	     -6.89709091	    -59.46554565	    -41.18104553	    -37.73737335	     84.18064117	     22.91528702	     23.41996002	    -14.43330669	    -25.16743851	    -66.42283630	      2.71461821	     25.28783989	    -12.89119148	      6.18482113	     57.45251083	      9.55994701
      1.44000000	    -19.31230354	    -43.64715958	   -156.79959106	    -71.22830963	    -12.83256626	     -1.67811966	     11.54133511	    -13.68087959	     -8.62902832	    -49.48822403	      6.59740257	     -8.30788994	    -18.63971329	    -16.07575989	     61.05629349	      9.19834518
      1.45000000	    -24.08785057	    -24.61612129	   -319.31320190	    -95.27730560	    -84.41159058	     -5.08378601	     -9.79519653	    -10.60695457	    -11.07143021	    -17.88696098	     -8.62899017	    -49.94794464	    -16.46486282	      7.29649258	     40.78423309	      2.27399373
      1.46000000	    -19.18912888	    -23.44904900	   -144.22567749	   -100.42646790	      6.19175911	    -34.84140396	     -8.41584206	    -18.63153076	     -7.72048950	     -6.48290634	      5.15312195	    -26.91647911	    -18.84639359	     -2.73118997	     19.54448700	     18.02069664
      1.47000000	    -10.81959152	     19.16711617	   -314.03320312	    -87.44924164	    -46.71053314	    -11.84383106	      5.18039322	     14.52158546	    -22.70358658	     12.20904732	      6.32871914	      4.61293602	    -40.34629440	     -9.17529392	     -7.02865458	     10.52585983
      1.48000000	     -1.58272743	     40.45128250	    802.15930176	    -62.62675858	   -105.08470917	     15.27971458	    -20.04155350	    -12.57693577	     -6.02955723	     33.45411301	     -4.52099276	     12.10195923	    -22.60008049	    -17.54636002	    -24.63535309	     -9.83333111
      1.49000000	     11.89928341	     22.76766396	   -190.38938904	    -27.12580109	   -258.93078613	    -22.47078705	    -26.27524376	     -1.20273352	    -33.50618362	     61.55452347	      2.35782313	     -8.58168125	    -19.12256622	     -2.44511414	     -6.61095190	    -33.59828949
      1.50000000	     10.49148846	     12.95878983	    113.40310669	      2.06455851	   -221.79148865	   -104.08194733	    -20.87320709	     18.05646324	    -34.08064270	     73.38948822	     -1.48977423	     -3.40023565	    -18.88859940	    -11.30612373	    -10.75183201	    -57.66716385
      1.51000000	     27.74623871	     37.38533401	    -13.31418228	     46.50846100	   -177.56668091	     25.49155045	    -15.65506458	      7.84883595	     22.21079445	     64.50868225	      4.72268772	     -5.62337494	    -12.23501682	     -3.60685086	     -4.05701876	    -41.10969162
      1.52000000	     19.69273567	     15.92513561	     25.36034393	     48.03771973	     21.17138672	     83.25258636	    -30.71006775	     36.36609650	    122.65291595	     62.33238220	    -12.10535145	     -6.01745892	     -6.76844931	      1.05311441	    -11.84338570	    -56.84998322
      1.53000000	      9.28756237	     16.26232719	      1.18778014	     49.29284286	    172.46618652	    -67.71624756	    -33.50062561	    -32.00785065	    228.77522278	     27.07896805	      4.04616451	     -5.11135864	     -8.18209839	     -1.93245840	    -16.71582031	    -42.72843170
      1.54000000	      2.08827257	     -7.03001928	     47.46217346	     40.01148605	     96.91013336	    266.21618652	    -19.44670105	     -8.58677673	      4.63994980	    -28.03152847	     -2.95175028	     -4.34293175	     -7.15732288	      1.07494903	    -24.52604675	    -66.66083527
      1.55000000	    -17.13171387	    -43.42300415	    -45.40924072	     21.45620728	    484.08288574	     38.44573975	     37.31039429	     50.50122070	    -43.09945679	      0.82333374	     -1.80697632	     -7.78262329	     12.92504883	      8.66629028	    -11.96713257	    -59.03164673
      1.56000000	    -36.35013199	    -64.14826965	     79.09133148	      1.55607891	    118.11505890	   -183.02905273	    -60.52230835	   -100.29705048	    -31.24624443	    -88.63408661	     -8.75780010	     -9.93068790	      2.84006023	     22.03867722	     11.31324196	    -80.20078278
      1.57000000	    -48.28947067	    -38.89889145	     -0.28770256	    -12.35381889	   -218.36491394	    -63.85397339	     34.57781219	    -21.14267731	    -50.41627121	   -127.76859283	     -0.07850409	      0.57181132	      7.08883190	     -0.80736303	     -2.78398967	    -59.23424530
